# xmcd CD database file
#
# Track frame offsets:
#	150
#	13140
#	24080
#	38872
#	53855
#	67352
#	81895
#	94075
#	108457
#	121140
#	133342
#	145962
#	159425
#	169305
#	182072
#	195952
#	207622
#	219142
#	233335
#	247292
#	260900
#	275447
#	286940
#	299027
#
# Disc length: 4168 seconds
#
# Revision: 0
# Processed by: cddbd v1.5.1PL0 Copyright (c) Steve Scherf et al.
# Submitted via: CDex 1.51
#
DISCID=73104618
DTITLE=Red Norvo - 1933-1936
DYEAR=1933
DGENRE=Jazz
TTITLE0=Knockin' On Wood
TTITLE1=Hole In The Wall
TTITLE2=In A Mist
TTITLE3=Dance Of the Octopus
TTITLE4=Old Fashioned Love
TTITLE5=I Surrender, Dear
TTITLE6=Tomboy
TTITLE7=The Night Is Blue
TTITLE8=Honeysuckle Rose
TTITLE9=With All My Heart And Soul
TTITLE10=Bughouse
TTITLE11=Blues In E Flat
TTITLE12=Gramercy Square
TTITLE13=Polly Wolly Doodle
TTITLE14=Decca Stomp
TTITLE15=The Music Goes 'Round And Around
TTITLE16=The Broken Record
TTITLE17=The Wedding Of Jack And Jill
TTITLE18=You Started Me Dreaming
TTITLE19=Misty Islands Of The Highlands
TTITLE20=What's The Name Of That Song?
TTITLE21=Let Yourself Go
TTITLE22=Life Begins When You're In Love
TTITLE23=If You Love Me
EXTD=YEAR: 1933
EXTT0=
EXTT1=
EXTT2=
EXTT3=
EXTT4=
EXTT5=
EXTT6=
EXTT7=
EXTT8=
EXTT9=
EXTT10=
EXTT11=
EXTT12=
EXTT13=
EXTT14=
EXTT15=
EXTT16=
EXTT17=
EXTT18=
EXTT19=
EXTT20=
EXTT21=
EXTT22=
EXTT23=
PLAYORDER=
